<svg width="12" height="13" viewBox="0 0 12 13" fill="none" xmlns="http://www.w3.org/2000/svg">
<g clip-path="url(#clip0_7088_302722)">
<path fill-rule="evenodd" clip-rule="evenodd" d="M6.78631 0.803627L10.5644 2.85028C11.0968 3.1387 11.4285 3.69557 11.4285 4.30108V8.21659C11.4285 8.82211 11.0968 9.37898 10.5644 9.6674L6.78631 11.7141C6.29602 11.9796 5.70476 11.9796 5.21447 11.7141L1.43635 9.6674C0.903932 9.37898 0.572266 8.82211 0.572266 8.21659V4.30108C0.572266 3.69557 0.903932 3.1387 1.43635 2.85028L5.21447 0.803627C5.70476 0.538033 6.29602 0.538033 6.78631 0.803627Z" fill="url(#paint0_linear_7088_302722)"/>
<path opacity="0.65" fill-rule="evenodd" clip-rule="evenodd" d="M9.22837 4.96908L8.75141 8.18415C8.72741 8.34593 8.58853 8.46572 8.42498 8.46572H4.6093C4.42704 8.46572 4.2793 8.31798 4.2793 8.13572C4.2793 8.03178 4.32827 7.93391 4.41147 7.87159L8.70412 4.65653C8.84999 4.54727 9.05682 4.57696 9.16607 4.72283C9.21886 4.79331 9.24129 4.88197 9.22837 4.96908Z" fill="white"/>
<path opacity="0.65" fill-rule="evenodd" clip-rule="evenodd" d="M3.29642 4.65657L7.58907 7.87164C7.73495 7.98089 7.76463 8.18772 7.65537 8.33359C7.59306 8.41679 7.49519 8.46577 7.39124 8.46577H3.57556C3.41201 8.46577 3.27313 8.34597 3.24913 8.18419L2.77217 4.96913C2.74543 4.78884 2.86989 4.62102 3.05017 4.59427C3.13728 4.58135 3.22594 4.60378 3.29642 4.65657Z" fill="white"/>
<path opacity="0.9" fill-rule="evenodd" clip-rule="evenodd" d="M6.26822 3.56839L8.61537 8.04362C8.70002 8.20502 8.6378 8.40449 8.4764 8.48914C8.42911 8.51394 8.37652 8.52689 8.32312 8.52689H3.62883C3.44657 8.52689 3.29883 8.37915 3.29883 8.19689C3.29883 8.1435 3.31178 8.0909 3.33658 8.04362L5.68373 3.56839C5.76838 3.40699 5.96785 3.34477 6.12925 3.42942C6.18861 3.46056 6.23709 3.50903 6.26822 3.56839Z" fill="white"/>
</g>
<defs>
<linearGradient id="paint0_linear_7088_302722" x1="6.00039" y1="0.604431" x2="6.00039" y2="11.9132" gradientUnits="userSpaceOnUse">
<stop stop-color="#EFCB7B"/>
<stop offset="0.31026" stop-color="#EFCB7B"/>
<stop offset="1" stop-color="#A18250"/>
</linearGradient>
<clipPath id="clip0_7088_302722">
<rect width="12" height="12" fill="white" transform="translate(0 0.200012)"/>
</clipPath>
</defs>
</svg>
